<?xml version="1.0" encoding="UTF-8"?>
<svg xmlns="http://www.w3.org/2000/svg" width="900" height="900" viewBox="0 0 900 900">
  <defs>
    <linearGradient id="bg2" x1="0" y1="0" x2="1" y2="1">
      <stop offset="0%" stop-color="#e6e0f5"/>
      <stop offset="100%" stop-color="#ffffff"/>
    </linearGradient>
    <linearGradient id="body2" x1="0" y1="0" x2="1" y2="1">
      <stop offset="0%" stop-color="#4f3a77"/>
      <stop offset="100%" stop-color="#101417"/>
    </linearGradient>
    <filter id="shadow2" x="-30%" y="-30%" width="160%" height="160%">
      <feDropShadow dx="0" dy="28" stdDeviation="24" flood-color="#000000" flood-opacity="0.2"/>
    </filter>
  </defs>
  <rect width="900" height="900" rx="48" fill="url(#bg2)"/>
  <ellipse cx="450" cy="760" rx="230" ry="54" fill="#111827" opacity="0.08"/>
  <g filter="url(#shadow2)" transform="translate(104,96)">
    <g transform="rotate(-6 255 350)">
      <rect x="60" y="38" width="330" height="650" rx="54" fill="url(#body2)"/>
      <rect x="76" y="56" width="298" height="614" rx="44" fill="#161b1f"/>
      <rect x="94" y="72" width="262" height="578" rx="36" fill="#4f3a77" opacity="0.96"/>
      <circle cx="143" cy="126" r="34" fill="#0d1114"/>
      <circle cx="143" cy="126" r="19" fill="#293138"/>
      <circle cx="215" cy="126" r="34" fill="#0d1114"/>
      <circle cx="215" cy="126" r="19" fill="#293138"/>
      <circle cx="143" cy="198" r="34" fill="#0d1114"/>
      <circle cx="143" cy="198" r="19" fill="#293138"/>
      <circle cx="215" cy="198" r="12" fill="#b59de2"/>
      <rect x="110" y="590" width="150" height="10" rx="5" fill="#ffffff" opacity="0.18"/>
    </g>
    <g transform="translate(305,72) rotate(7 245 320)">
      <rect x="80" y="22" width="334" height="654" rx="56" fill="#0e1113"/>
      <rect x="96" y="38" width="302" height="622" rx="44" fill="#0c0f11"/>
      <rect x="108" y="50" width="278" height="598" rx="36" fill="#15191d"/>
      <circle cx="247" cy="72" r="8" fill="#2b3135"/>
      <path d="M125 430 C210 320, 300 345, 370 230 L370 648 L108 648 L108 488 Z" fill="#b59de2" opacity="0.65"/>
      <circle cx="300" cy="280" r="118" fill="#ffffff" opacity="0.07"/>
      <circle cx="300" cy="280" r="70" fill="#ffffff" opacity="0.06"/>
    </g>
  </g>
  <text x="70" y="825" font-family="Arial, Helvetica, sans-serif" font-size="34" font-weight="700" fill="#192028">Nova Pulse X</text>
  <text x="70" y="862" font-family="Arial, Helvetica, sans-serif" font-size="18" fill="#5d6872">Fictional product · prototype visual</text>
</svg>